<svg width="24" height="20" viewBox="0 0 24 20" fill="none" xmlns="http://www.w3.org/2000/svg">
    <path fill-rule="evenodd" clip-rule="evenodd" d="M3 .5h18c1.657 0 3 1.353 3 3.023v12.954c0 1.67-1.343 3.023-3 3.023H3c-1.657 0-3-1.353-3-3.023V3.523C0 1.853 1.343.5 3 .5zm18 1.727H3c-.71 0-1.286.58-1.286 1.296v12.954A1.29 1.29 0 0 0 3 17.773h18c.71 0 1.286-.58 1.286-1.296V3.523A1.29 1.29 0 0 0 21 2.227z" fill="#007AFF"/>
    <path d="M18.628 3.687a.825.825 0 0 1 1.193.156.917.917 0 0 1-.135 1.235l-.014.013-7.65 6.222a.82.82 0 0 1-1.028.012l-.016-.012-7.65-6.222a.916.916 0 0 1-.149-1.248.825.825 0 0 1 1.178-.168l.015.012L11.5 9.485l7.128-5.798z" fill="#007AFF"/>
</svg>
